# xmcd CD database file
#
# Track frame offsets:
#	150
#	17184
#	35188
#	55231
#	75624
#	100537
#	106020
#	131364
#	140409
#	156331
#	180220
#
# Disc length: 2810 seconds
#
# Revision: 1
# Processed by: cddbd v1.5.2PL0 Copyright (c) Steve Scherf et al.
# Submitted via: CDex 1.70beta2
#
DISCID=820af80b
DTITLE=Clap Your Hands Say Yeah - Some Loud Thunder
DYEAR=2007
DGENRE=Alternative
TTITLE0=Some Loud Thunder
TTITLE1=Emily Jean Stock
TTITLE2=Mama, Won't You Keep Them Castles In The Air And Burning?
TTITLE3=Love Song No. 7
TTITLE4=Satan Said Dance
TTITLE5=Upon Encountering The Crippled Elephant
TTITLE6=Goodbye To The Mother And The Cover
TTITLE7=Arm And Hammer
TTITLE8=Yankee Go Home
TTITLE9=Underwater (You And Me)
TTITLE10=Five Easy Pieces
EXTD=YEAR: 2007
EXTT0=
EXTT1=
EXTT2=
EXTT3=
EXTT4=
EXTT5=
EXTT6=
EXTT7=
EXTT8=
EXTT9=
EXTT10=
PLAYORDER=
